<svg xmlns="http://www.w3.org/2000/svg" viewBox="0 0 1077.65 518.12"><defs><style>.cls-1{font-size:51.44px;font-family:Montserrat-Regular, Montserrat;}.cls-1,.cls-2{fill:#fff;}</style></defs><g id="Layer_2" data-name="Layer 2"><g id="Layer_1-2" data-name="Layer 1"><text class="cls-1" transform="translate(12.55 504.64)">SOFTWARE . DEVELOPMENT . NETWORK</text><path class="cls-2" d="M259,300.72Q244.3,323.45,215.57,337T146,350.52q-61.59,0-101.45-28T1,244.15h94.2Q97.29,263.5,110,274.62t32.35,11.12q17.07,0,26.92-8.7t9.83-23.22A29,29,0,0,0,170,232.07,71.53,71.53,0,0,0,147.5,217.8q-13.45-5.56-37.25-13.28Q75.56,193.39,53.56,183a102.66,102.66,0,0,1-37.78-30.94Q0,131.51,0,98.62,0,68.19,16.54,45.93T62.36,11.84Q91.58,0,129.39,0q61.05,0,97.06,27.07t40.62,74.46H171.31q-2.58-16.92-13.2-26.84t-28.72-9.91q-15.51,0-25.1,7.75t-9.58,22.7a27.83,27.83,0,0,0,8.53,20.55,65.22,65.22,0,0,0,21.5,13.78q12.92,5.33,37.25,13.56,35.22,11.12,57.45,22a107.76,107.76,0,0,1,38.31,31.64q16,20.81,16,54.16A89.4,89.4,0,0,1,259,300.72"/><path class="cls-2" d="M662.38,269.74q-21.09,38.16-60.65,59.46t-93.12,21.33H382.09v-335H508.61q54,0,93.35,20.84t60.42,58.76q21.07,37.92,21.08,87.18t-21.08,87.43m-87.19-16.82q26.31-25.09,26.3-70.61t-26.3-70.61q-26.3-25.08-73.68-25.11H463.12V278h38.39q47.36,0,73.68-25.12"/><polygon class="cls-2" points="1077.45 350.52 996.42 350.52 860.9 144.89 860.9 350.52 779.87 350.52 779.87 15.52 860.9 15.52 996.42 223.06 996.42 15.52 1077.45 15.52 1077.45 350.52"/></g></g></svg>