<svg xmlns="http://www.w3.org/2000/svg" xmlns:xlink="http://www.w3.org/1999/xlink" viewBox="0 0 1775.13 671.24"><defs><style>.cls-1,.cls-2{fill:#fff;}.cls-2{font-size:51.44px;font-family:Montserrat-Regular, Montserrat;}.cls-3{clip-path:url(#clip-path);}.cls-4{clip-path:url(#clip-path-2);}</style><clipPath id="clip-path" transform="translate(0.86)"><path class="cls-1" d="M8.61,468.34a64.87,64.87,0,0,0-.5,58l59.5,121.54a39,39,0,0,0,35,21.81h47L76.67,520.76c-22.18-45.3-32.53-84.26-29.91-127Z"/></clipPath><clipPath id="clip-path-2" transform="translate(0.86)"><path class="cls-1" d="M350.85,1.55l72.93,148.93c22.18,45.31,32.5,84.24,29.9,127l38.14-74.59a64.86,64.86,0,0,0,.52-58L432.81,23.37a38.91,38.91,0,0,0-35-21.82Z"/></clipPath></defs><g id="Layer_2" data-name="Layer 2"><g id="Layer_1-2" data-name="Layer 1"><text class="cls-2" transform="translate(710.02 609.16)">SOFTWARE . DEVELOPMENT . NETWORK</text><path class="cls-1" d="M204.35,167h82.11L117.57,497.21,202,669.7H102.59a39,39,0,0,1-35-21.82L8.11,526.33a64.79,64.79,0,0,1,.51-58L143.8,204.07a68,68,0,0,1,60.55-37" transform="translate(0.86)"/><path class="cls-1" d="M204.5,671.24H102.59a40.76,40.76,0,0,1-36.36-22.68L6.72,527a66.65,66.65,0,0,1,.52-59.38L142.42,203.36a69.27,69.27,0,0,1,61.93-37.88H289L119.3,497.22Zm-.15-502.67a66.2,66.2,0,0,0-59.17,36.2L10,469.06a63.5,63.5,0,0,0-.49,56.59L69,647.2a37.64,37.64,0,0,0,33.58,20.94h96.94L115.84,497.2l.35-.69L283.93,168.57Z" transform="translate(0.86)"/><path class="cls-1" d="M143.8,204.07C76.48,335.69,71.22,402.54,117.57,497.21L202,669.69H102.59a38.94,38.94,0,0,1-35-21.81L8.11,526.33a64.79,64.79,0,0,1,.51-58Z" transform="translate(0.86)"/><path class="cls-1" d="M8.61,468.34a64.87,64.87,0,0,0-.5,58l59.5,121.54a39,39,0,0,0,35,21.81h47L76.67,520.76c-22.18-45.3-32.53-84.26-29.91-127Z" transform="translate(0.86)"/><g class="cls-3"><rect class="cls-1" y="393.79" width="2.38" height="275.9"/><rect class="cls-1" x="2.38" y="393.79" width="1.88" height="275.9"/><rect class="cls-1" x="4.25" y="393.79" width="1.88" height="275.9"/><rect class="cls-1" x="6.13" y="393.79" width="1.88" height="275.9"/><rect class="cls-1" x="8.01" y="393.79" width="1.88" height="275.9"/><rect class="cls-1" x="9.89" y="393.79" width="1.88" height="275.9"/><rect class="cls-1" x="11.76" y="393.79" width="1.88" height="275.9"/><rect class="cls-1" x="13.63" y="393.79" width="1.88" height="275.9"/><rect class="cls-1" x="15.51" y="393.79" width="1.88" height="275.9"/><rect class="cls-1" x="17.39" y="393.79" width="1.88" height="275.9"/><rect class="cls-1" x="19.27" y="393.79" width="1.88" height="275.9"/><rect class="cls-1" x="21.14" y="393.79" width="1.88" height="275.9"/><rect class="cls-1" x="23.02" y="393.79" width="1.88" height="275.9"/><rect class="cls-1" x="24.9" y="393.79" width="1.88" height="275.9"/><rect class="cls-1" x="26.77" y="393.79" width="1.88" height="275.9"/><rect class="cls-1" x="28.65" y="393.79" width="1.88" height="275.9"/><rect class="cls-1" x="30.53" y="393.79" width="1.88" height="275.9"/><rect class="cls-1" x="32.4" y="393.79" width="1.88" height="275.9"/><rect class="cls-1" x="34.28" y="393.79" width="1.88" height="275.9"/><rect class="cls-1" x="36.15" y="393.79" width="1.88" height="275.9"/><rect class="cls-1" x="38.03" y="393.79" width="1.88" height="275.9"/><rect class="cls-1" x="39.91" y="393.79" width="1.88" height="275.9"/><rect class="cls-1" x="41.79" y="393.79" width="1.88" height="275.9"/><rect class="cls-1" x="43.66" y="393.79" width="1.88" height="275.9"/><rect class="cls-1" x="45.54" y="393.79" width="1.88" height="275.9"/><rect class="cls-1" x="47.42" y="393.79" width="1.88" height="275.9"/><rect class="cls-1" x="49.3" y="393.79" width="1.88" height="275.9"/><rect class="cls-1" x="51.17" y="393.79" width="1.88" height="275.9"/><rect class="cls-1" x="53.04" y="393.79" width="1.88" height="275.9"/><rect class="cls-1" x="54.92" y="393.79" width="1.88" height="275.9"/><rect class="cls-1" x="56.8" y="393.79" width="1.88" height="275.9"/><rect class="cls-1" x="58.68" y="393.79" width="1.88" height="275.9"/><rect class="cls-1" x="60.55" y="393.79" width="1.88" height="275.9"/><rect class="cls-1" x="62.43" y="393.79" width="1.88" height="275.9"/><rect class="cls-1" x="64.31" y="393.79" width="1.88" height="275.9"/><rect class="cls-1" x="66.19" y="393.79" width="1.88" height="275.9"/><rect class="cls-1" x="68.06" y="393.79" width="1.88" height="275.9"/><rect class="cls-1" x="69.94" y="393.79" width="1.88" height="275.9"/><rect class="cls-1" x="71.81" y="393.79" width="1.88" height="275.9"/><rect class="cls-1" x="73.69" y="393.79" width="1.88" height="275.9"/><rect class="cls-1" x="75.57" y="393.79" width="1.88" height="275.9"/><rect class="cls-1" x="77.44" y="393.79" width="1.88" height="275.9"/><rect class="cls-1" x="79.32" y="393.79" width="1.88" height="275.9"/><rect class="cls-1" x="81.2" y="393.79" width="1.88" height="275.9"/><rect class="cls-1" x="83.07" y="393.79" width="1.88" height="275.9"/><rect class="cls-1" x="84.95" y="393.79" width="1.88" height="275.9"/><rect class="cls-1" x="86.83" y="393.79" width="1.88" height="275.9"/><rect class="cls-1" x="88.7" y="393.79" width="4.75" height="275.9"/><rect class="cls-1" x="93.45" y="393.79" width="4.75" height="275.9"/><rect class="cls-1" x="98.2" y="393.79" width="4.75" height="275.9"/><rect class="cls-1" x="102.95" y="393.79" width="4.75" height="275.9"/><rect class="cls-1" x="107.7" y="393.79" width="4.75" height="275.9"/><rect class="cls-1" x="112.45" y="393.79" width="4.75" height="275.9"/><rect class="cls-1" x="117.2" y="393.79" width="4.75" height="275.9"/><rect class="cls-1" x="121.94" y="393.79" width="4.75" height="275.9"/><rect class="cls-1" x="126.69" y="393.79" width="4.75" height="275.9"/><rect class="cls-1" x="131.44" y="393.79" width="4.75" height="275.9"/><rect class="cls-1" x="136.19" y="393.79" width="4.75" height="275.9"/><rect class="cls-1" x="140.94" y="393.79" width="4.75" height="275.9"/><rect class="cls-1" x="145.69" y="393.79" width="4.75" height="275.9"/><path class="cls-1" d="M149.58,669.69v0Z" transform="translate(0.86)"/></g><path class="cls-1" d="M296.09,504.21H214L382.86,174,298.42,1.55h99.43a38.93,38.93,0,0,1,35,21.82l59.5,121.54a64.79,64.79,0,0,1-.5,58L356.64,467.17a68,68,0,0,1-60.55,37" transform="translate(0.86)"/><path class="cls-1" d="M296.09,505.77H211.44L381.13,174,295.94,0H397.85a40.75,40.75,0,0,1,36.36,22.69l59.51,121.53a66.68,66.68,0,0,1-.52,59.38L358,467.88a69.31,69.31,0,0,1-61.93,37.89m-79.58-3.11h79.58a66.18,66.18,0,0,0,59.17-36.2L490.44,202.18a63.53,63.53,0,0,0,.49-56.59L431.43,24A37.65,37.65,0,0,0,397.85,3.1h-97L384.59,174Z" transform="translate(0.86)"/><path class="cls-1" d="M356.64,467.17C424,335.55,429.22,268.71,382.86,174L298.42,1.55h99.43a38.94,38.94,0,0,1,35,21.81l59.5,121.55a64.78,64.78,0,0,1-.5,58Z" transform="translate(0.86)"/><path class="cls-1" d="M350.85,1.55l72.93,148.93c22.18,45.31,32.5,84.24,29.9,127l38.14-74.59a64.86,64.86,0,0,0,.52-58L432.81,23.37a38.91,38.91,0,0,0-35-21.82Z" transform="translate(0.86)"/><g class="cls-4"><polygon class="cls-1" points="390.57 1.55 351.72 137.49 351.72 1.55 390.57 1.55"/><polygon class="cls-1" points="392.52 1.55 351.72 144.33 351.72 137.49 390.57 1.55 392.52 1.55"/><polygon class="cls-1" points="394.48 1.55 351.72 151.15 351.72 144.33 392.52 1.55 394.48 1.55"/><polygon class="cls-1" points="396.43 1.55 351.71 157.98 351.71 151.15 394.48 1.55 396.43 1.55"/><polygon class="cls-1" points="398.38 1.55 351.72 164.81 351.72 157.98 396.43 1.55 398.38 1.55"/><polygon class="cls-1" points="400.33 1.55 351.72 171.64 351.72 164.81 398.38 1.55 400.33 1.55"/><polygon class="cls-1" points="402.28 1.55 351.72 178.46 351.72 171.64 400.33 1.55 402.28 1.55"/><polygon class="cls-1" points="404.24 1.55 351.72 185.3 351.72 178.46 402.28 1.55 404.24 1.55"/><polygon class="cls-1" points="406.19 1.55 351.72 192.13 351.72 185.3 404.24 1.55 406.19 1.55"/><polygon class="cls-1" points="408.14 1.55 351.71 198.96 351.71 192.13 406.19 1.55 408.14 1.55"/><polygon class="cls-1" points="410.09 1.55 351.71 205.79 351.71 198.96 408.14 1.55 410.09 1.55"/><polygon class="cls-1" points="412.04 1.55 351.72 212.61 351.72 205.79 410.09 1.55 412.04 1.55"/><polygon class="cls-1" points="413.99 1.55 351.72 219.45 351.72 212.61 412.04 1.55 413.99 1.55"/><polygon class="cls-1" points="415.95 1.55 351.72 226.27 351.72 219.45 414 1.55 415.95 1.55"/><polygon class="cls-1" points="417.9 1.55 351.72 233.1 351.72 226.27 415.95 1.55 417.9 1.55"/><polygon class="cls-1" points="419.85 1.55 351.72 239.94 351.72 233.1 417.9 1.55 419.85 1.55"/><polygon class="cls-1" points="421.8 1.55 351.71 246.76 351.71 239.94 419.85 1.55 421.8 1.55"/><polygon class="cls-1" points="423.75 1.55 351.72 253.59 351.72 246.76 421.8 1.55 423.75 1.55"/><polygon class="cls-1" points="425.7 1.55 353.28 254.96 351.72 254.5 351.72 253.59 423.75 1.55 425.7 1.55"/><polygon class="cls-1" points="427.66 1.55 355.08 255.47 353.28 254.96 425.71 1.55 427.66 1.55"/><polygon class="cls-1" points="429.61 1.55 356.89 255.99 355.08 255.47 427.66 1.55 429.61 1.55"/><polygon class="cls-1" points="431.56 1.55 358.69 256.51 356.89 255.99 429.61 1.55 431.56 1.55"/><polygon class="cls-1" points="433.51 1.55 360.5 257.03 358.69 256.51 431.56 1.55 433.51 1.55"/><polygon class="cls-1" points="435.46 1.55 362.3 257.54 360.49 257.03 433.51 1.55 435.46 1.55"/><polygon class="cls-1" points="436.12 1.55 437.32 1.9 364.1 258.06 362.3 257.54 435.46 1.55 436.12 1.55"/><rect class="cls-1" x="267.54" y="129.29" width="266.42" height="1.88" transform="translate(166.26 479.76) rotate(-74.05)"/><rect class="cls-1" x="269.35" y="129.81" width="266.42" height="1.88" transform="matrix(0.27, -0.96, 0.96, 0.27, 167.07, 481.87)"/><rect class="cls-1" x="271.15" y="130.32" width="266.42" height="1.88" transform="translate(167.89 483.98) rotate(-74.05)"/><rect class="cls-1" x="272.96" y="130.84" width="266.42" height="1.88" transform="matrix(0.27, -0.96, 0.96, 0.27, 168.7, 486.09)"/><rect class="cls-1" x="274.76" y="131.35" width="266.42" height="1.88" transform="translate(169.51 488.2) rotate(-74.05)"/><rect class="cls-1" x="276.57" y="131.87" width="266.42" height="1.88" transform="translate(170.32 490.3) rotate(-74.05)"/><rect class="cls-1" x="278.37" y="132.39" width="266.42" height="1.88" transform="translate(171.14 492.41) rotate(-74.05)"/><rect class="cls-1" x="280.18" y="132.9" width="266.42" height="1.88" transform="translate(171.95 494.52) rotate(-74.05)"/><rect class="cls-1" x="281.98" y="133.42" width="266.42" height="1.88" transform="translate(172.76 496.63) rotate(-74.05)"/><rect class="cls-1" x="283.78" y="133.93" width="266.42" height="1.88" transform="matrix(0.27, -0.96, 0.96, 0.27, 173.57, 498.74)"/><rect class="cls-1" x="285.59" y="134.45" width="266.42" height="1.88" transform="translate(174.39 500.85) rotate(-74.05)"/><rect class="cls-1" x="287.39" y="134.96" width="266.42" height="1.88" transform="translate(175.2 502.96) rotate(-74.05)"/><rect class="cls-1" x="289.2" y="135.48" width="266.42" height="1.88" transform="translate(176.01 505.07) rotate(-74.05)"/><rect class="cls-1" x="291" y="136" width="266.42" height="1.88" transform="translate(176.83 507.18) rotate(-74.05)"/><rect class="cls-1" x="292.81" y="136.51" width="266.42" height="1.88" transform="translate(177.64 509.28) rotate(-74.05)"/><rect class="cls-1" x="294.61" y="137.03" width="266.42" height="1.88" transform="translate(178.45 511.39) rotate(-74.05)"/><rect class="cls-1" x="296.41" y="137.54" width="266.42" height="1.88" transform="translate(179.26 513.5) rotate(-74.05)"/><rect class="cls-1" x="298.22" y="138.06" width="266.42" height="1.88" transform="translate(180.08 515.61) rotate(-74.05)"/><rect class="cls-1" x="300.02" y="138.57" width="266.42" height="1.88" transform="translate(180.89 517.72) rotate(-74.05)"/><rect class="cls-1" x="301.83" y="139.09" width="266.42" height="1.88" transform="matrix(0.27, -0.96, 0.96, 0.27, 181.7, 519.83)"/><rect class="cls-1" x="303.63" y="139.61" width="266.42" height="1.88" transform="translate(182.52 521.94) rotate(-74.05)"/><rect class="cls-1" x="305.44" y="140.12" width="266.42" height="1.88" transform="translate(183.33 524.05) rotate(-74.05)"/><polygon class="cls-1" points="477.02 13.23 481.58 14.54 408.37 270.7 403.81 269.4 477.02 13.23"/><polygon class="cls-1" points="481.58 14.54 486.15 15.86 412.93 272.01 408.37 270.7 481.58 14.54"/><polygon class="cls-1" points="486.15 15.85 490.72 17.16 417.5 273.31 412.94 272.01 486.15 15.85"/><polygon class="cls-1" points="490.71 17.15 495.28 18.46 422.06 274.62 417.5 273.32 490.71 17.15"/><polygon class="cls-1" points="495.28 18.46 499.85 19.77 426.63 275.92 422.07 274.62 495.28 18.46"/><polygon class="cls-1" points="499.85 19.76 502.16 20.43 502.16 28.96 431.2 277.22 426.64 275.93 499.85 19.76"/><polygon class="cls-1" points="502.16 46.24 436.08 277.45 431.99 277.45 431.2 277.22 502.16 28.96 502.16 46.24"/><polygon class="cls-1" points="502.16 63.52 441.01 277.46 436.08 277.46 502.16 46.24 502.16 63.52"/><polygon class="cls-1" points="502.16 80.8 445.95 277.45 441.01 277.45 502.16 63.52 502.16 80.8"/><polygon class="cls-1" points="502.16 98.08 450.89 277.46 445.95 277.46 502.16 80.81 502.16 98.08"/><polygon class="cls-1" points="502.16 115.36 455.83 277.46 450.89 277.46 502.16 98.09 502.16 115.36"/><polygon class="cls-1" points="502.16 132.64 460.77 277.45 455.83 277.45 502.16 115.37 502.16 132.64"/><polygon class="cls-1" points="502.16 149.92 465.71 277.46 460.77 277.46 502.16 132.65 502.16 149.92"/><polygon class="cls-1" points="465.71 277.45 502.16 149.92 502.16 277.45 465.71 277.45"/></g><path class="cls-1" d="M955.65,405.24Q940.92,428,912.19,441.49T842.56,455Q781,455,741.12,427t-43.48-78.33h94.21q2,19.35,14.75,30.46T839,390.26q17.07,0,26.92-8.71c6.53-5.8,9.83-13.53,9.83-23.21a29,29,0,0,0-9.06-21.75,71.35,71.35,0,0,0-22.52-14.27q-13.46-5.56-37.26-13.29-34.68-11.13-56.69-21.52a102.44,102.44,0,0,1-37.77-30.94Q696.59,236,696.62,203.14q0-30.43,16.54-52.69T759,116.36q29.24-11.85,67-11.84,61.05,0,97,27.07t40.62,74.46H867.93q-2.58-16.92-13.2-26.84T826,169.3q-15.53,0-25.1,7.74t-9.59,22.71a27.8,27.8,0,0,0,8.54,20.54,64.86,64.86,0,0,0,21.49,13.78q12.92,5.34,37.26,13.57,35.21,11.12,57.45,22a107.52,107.52,0,0,1,38.3,31.64q16,20.81,16,54.16a89.44,89.44,0,0,1-14.76,49.8" transform="translate(0.86)"/><path class="cls-1" d="M1359,374.26q-21.08,38.14-60.65,59.46t-93.11,21.33H1078.71V120h126.52q54,0,93.35,20.84T1359,199.65q21.09,37.92,21.09,87.18T1359,374.26m-87.18-16.82q26.31-25.11,26.29-70.61t-26.29-70.61q-26.3-25.08-73.68-25.11h-38.39V382.56h38.39q47.36,0,73.68-25.12" transform="translate(0.86)"/><polygon class="cls-1" points="1774.93 455.04 1693.9 455.04 1558.38 249.41 1558.38 455.04 1477.35 455.04 1477.35 120.04 1558.38 120.04 1693.9 327.58 1693.9 120.04 1774.93 120.04 1774.93 455.04"/></g></g></svg>